<svg width="21" height="89" viewBox="0 0 21 89" fill="none" xmlns="http://www.w3.org/2000/svg">
<mask id="path-1-inside-1_95_8" fill="white">
<path d="M19 -7.47014e-05C20.1046 -3.34449e-05 21 0.89543 20.9999 2L20.9968 87.0008C20.9967 88.1054 20.1012 89.0008 18.9967 89.0007L1.99999 89.0001C0.895425 89 2.98932e-05 88.1046 7.11497e-05 87L0.00324599 1.99922C0.00328725 0.894648 0.898751 -0.000750797 2.00332 -0.00070954L19 -7.47014e-05Z"/>
</mask>
<path d="M19 -7.47014e-05C20.1046 -3.34449e-05 21 0.89543 20.9999 2L20.9968 87.0008C20.9967 88.1054 20.1012 89.0008 18.9967 89.0007L1.99999 89.0001C0.895425 89 2.98932e-05 88.1046 7.11497e-05 87L0.00324599 1.99922C0.00328725 0.894648 0.898751 -0.000750797 2.00332 -0.00070954L19 -7.47014e-05Z" fill="#F3A918"/>
<path d="M21 0L20.9967 89.0008L21 0ZM-3.55181e-06 89L0.00332069 -0.000784242L-3.55181e-06 89ZM0.00324599 1.99922C0.00330788 0.342362 1.3465 -1.00073 3.00336 -1.00067L18 -1.00011C19.6569 -1.00005 21 0.343146 20.9999 2C20.9999 1.44772 20.1045 0.999967 19 0.999925L2.00328 0.99929C0.898714 0.999249 0.00326662 1.44693 0.00324599 1.99922ZM20.9967 89.0008L-3.55181e-06 89L20.9967 89.0008Z" fill="#F3A918" mask="url(#path-1-inside-1_95_8)"/>
</svg>
